#N canvas 649 22 685 694 10;
#X obj 67 206 gemhead;
#X obj 67 237 translateXYZ;
#X obj 67 263 colorRGB 1 1 1 0.2;
#X obj 5 263 loadbang;
#X msg 4 290 draw line;
#X obj 67 294 alpha;
#X floatatom 185 -24 5 0 0 0 - - -;
#X obj 185 -51 init \$1;
#X obj 231 51 int;
#X obj 236 114 k_range 0 2 3 0;
#X obj 67 322 circle 0.5;
#X obj 180 53 % 9;
#X obj 232 28 / 9;
#X obj 177 88 k_range 0 8 -6 6;
#X obj 289 274 gemhead;
#X obj 287 326 translateXYZ;
#X obj 285 363 colorRGB 1 1 1 0.2;
#X obj 287 399 alpha;
#X obj 292 449 circle 0.4;
#X msg 409 191 1 1 1 0.3;
#X obj 328 215 unpack f f f f;
#X msg 332 189 1 0 1 0.7;
#X obj 416 270 osc~ 440;
#X obj 417 217 k_range 0 26 330 880;
#X floatatom 417 242 5 0 0 0 - - -;
#X obj 416 340 dac~;
#X obj 417 306 *~;
#X msg 480 251 0.3 \, 0 100;
#X obj 481 279 line~;
#X obj 185 349 distance2d;
#X floatatom 228 156 5 0 0 0 - - -;
#X floatatom 283 155 5 0 0 0 - - -;
#X obj 231 186 pack f f;
#X obj 185 315 r pos;
#X floatatom 183 388 5 0 0 0 - - -;
#X obj 182 411 < 0.5;
#X obj 180 435 change;
#X obj 180 487 sel 1;
#X obj 180 462 spigot;
#X msg 172 599 1;
#X obj 270 539 tgl 15 0 empty empty empty 17 7 0 10 -262144 -1 -1 1
1;
#X msg 206 601 0;
#X obj 181 518 t b b b;
#X obj 273 498 loadbang;
#X obj 174 571 delay 100;
#X msg 133 436 1;
#X obj 185 0 t f f f;
#X connect 0 0 1 0;
#X connect 1 0 2 0;
#X connect 2 0 5 0;
#X connect 3 0 4 0;
#X connect 4 0 10 0;
#X connect 5 0 10 0;
#X connect 6 0 46 0;
#X connect 7 0 6 0;
#X connect 8 0 9 0;
#X connect 9 0 1 2;
#X connect 9 0 15 2;
#X connect 9 0 31 0;
#X connect 11 0 13 0;
#X connect 12 0 8 0;
#X connect 13 0 1 1;
#X connect 13 0 15 1;
#X connect 13 0 30 0;
#X connect 14 0 15 0;
#X connect 15 0 16 0;
#X connect 16 0 17 0;
#X connect 17 0 18 0;
#X connect 19 0 20 0;
#X connect 20 0 16 1;
#X connect 20 1 16 2;
#X connect 20 2 16 3;
#X connect 20 3 16 4;
#X connect 21 0 20 0;
#X connect 22 0 26 0;
#X connect 23 0 24 0;
#X connect 24 0 22 0;
#X connect 26 0 25 0;
#X connect 26 0 25 1;
#X connect 27 0 28 0;
#X connect 28 0 26 1;
#X connect 29 0 34 0;
#X connect 30 0 32 0;
#X connect 31 0 32 1;
#X connect 32 0 29 1;
#X connect 33 0 29 0;
#X connect 34 0 35 0;
#X connect 35 0 36 0;
#X connect 36 0 38 0;
#X connect 37 0 42 0;
#X connect 38 0 37 0;
#X connect 39 0 40 0;
#X connect 40 0 38 1;
#X connect 41 0 40 0;
#X connect 42 0 44 0;
#X connect 42 1 41 0;
#X connect 42 1 21 0;
#X connect 42 1 27 0;
#X connect 43 0 40 0;
#X connect 44 0 39 0;
#X connect 44 0 19 0;
#X connect 45 0 38 0;
#X connect 46 0 11 0;
#X connect 46 1 12 0;
#X connect 46 2 23 0;
