#N canvas 1752 157 576 520 10;
#X declare -path Pduino-0.5;
#X declare -path abs;
#X obj 24 157 arduino;
#X msg 142 72 devices;
#X floatatom 80 243 5 0 0 3 - - -;
#X obj 322 238 gemwin;
#X obj 24 336 s knob;
#X msg 64 122 close;
#X obj -10 84 r toarduino;
#X obj 24 181 route analog digital;
#X obj 168 151 route 2;
#X obj 168 274 s shot;
#X obj 168 174 tgl 30 0 empty empty empty 17 7 0 10 -257985 -1 -1 0
1;
#X obj 168 208 sel 1;
#X msg 303 177 destroy;
#X msg 24 -37 analogIns 0 1 \, analogIns 0 1 \, analogIns 0 1 \, analogIns
3 1 \, pinMode 2 input \, pinMode 10 3;
#X obj 21 363 loadbang;
#X msg 21 388 \; pd dsp 1;
#X obj -10 109 spigot;
#X obj 64 -1 tgl 30 0 empty empty empty 17 7 0 10 -258113 -1 -1 0 1
;
#X obj 64 36 t f f;
#X obj 64 59 sel 0 1;
#X obj 303 113 tgl 30 0 empty empty empty 17 7 0 10 -258113 -1 -1 0
1;
#X obj 303 152 sel 0 1;
#X obj 27 291 hsl 50 15 1 0 0 0 empty empty empty -2 -8 0 10 -257985
-1 -1 0 1;
#X msg 322 209 dimen 600 300 \, FSAA 8 \, create \, 1;
#X obj 80 265 s temperature;
#X obj 83 225 hsl 50 15 0.27 0.3 0 0 empty empty empty -2 -8 0 10 -257985
-1 -1 0 1;
#X obj 24 203 route 0 1 2 3;
#X obj 212 200 r tgl-touch;
#X obj 168 246 spigot;
#X obj 212 227 tgl 15 0 empty empty empty 17 7 0 10 -262144 -1 -1 0
1;
#X obj 83 83 t b b;
#X text 193 72 [1]找尋輸入的comport value;
#X text 101 7 [3]與arduino連線;
#X text 158 126 [2]替換正確的輸入 value;
#X obj 89 437 declare -path Pduino-0.5;
#N canvas 753 229 553 466 [subpatch]cannon 0;
#X obj 94 184 expr 127*(1-$f1);
#X obj 43 214 gemhead;
#X obj 43 308 rotateXYZ;
#X obj 43 380 rectangle 0.2 0.7;
#X obj 43 280 translateXYZ 0 -3 0;
#X floatatom 94 258 5 0 0 0 - - -;
#X floatatom 94 211 5 0 0 0 - - -;
#X obj 94 234 k_range 0 127 45 -45;
#X obj 43 336 translateXYZ 0 0.7 0;
#X obj 94 161 r knob;
#X obj 186 287 gemhead;
#X obj 186 381 rotateXYZ;
#X obj 186 353 translateXYZ 0 -3 0;
#X obj 186 409 translateXYZ 0 1.3 0;
#X obj 186 436 rectangle 0.32 0.15;
#X obj 251 209 translateXYZ 0 -3 0;
#X obj 251 239 circle 0.4;
#X obj 383 208 translateXYZ 0 -3 0;
#X obj 383 234 circle 0.2;
#X obj 251 143 gemhead 8;
#X obj 383 179 colorRGB 0.5 0.5 0.5;
#X obj 383 142 gemhead 50;
#X connect 0 0 6 0;
#X connect 1 0 4 0;
#X connect 2 0 8 0;
#X connect 4 0 2 0;
#X connect 5 0 2 3;
#X connect 5 0 11 3;
#X connect 6 0 7 0;
#X connect 7 0 5 0;
#X connect 8 0 3 0;
#X connect 9 0 0 0;
#X connect 10 0 12 0;
#X connect 11 0 13 0;
#X connect 12 0 11 0;
#X connect 13 0 14 0;
#X connect 15 0 16 0;
#X connect 17 0 18 0;
#X connect 19 0 15 0;
#X connect 20 0 17 0;
#X connect 21 0 20 0;
#X restore 93 302 pd [subpatch]cannon;
#N canvas 829 115 611 578 [subpatch]power 0;
#X obj 438 -9 loadbang;
#X obj 0 -217 colorRGB 1 0 0 0;
#X obj 175 -331 r temperature;
#X obj 0 -243 gemhead 5;
#X obj 371 -9 gemhead 6;
#X obj 175 -168 line;
#X msg 175 -192 \$1 200;
#X floatatom 175 -144 5 0 0 0 - - -;
#X obj 87 -123 * 2;
#X floatatom 87 -102 5 0 0 0 - - -;
#X obj 190 -100 expr ($f1*2)-2;
#X obj 206 -70 expr if($f1>0.9 \, 1 \, 0);
#X obj 320 -210 gemhead 6;
#X obj 320 -105 text2d;
#X obj 392 -161 loadbang;
#X obj 115 115 s toarduino;
#X floatatom 115 64 5 0 0 0 - - -;
#X msg 115 92 digital 11 1 \, pwm 10 \$1;
#X obj 223 -400 r shot;
#X obj 175 -306 spigot;
#X obj 175 -122 t f f f f f;
#X obj 409 -316 sel 1;
#X msg 409 -292 0;
#X obj 223 -305 tgl 15 0 empty empty empty 17 7 0 10 -262144 -1 -1
1 1;
#X msg 223 -353 1;
#X obj 104 -324 r shot;
#X msg 104 -270 0;
#X obj 104 -296 del 10000;
#X obj 237 -36 s vol;
#X obj 223 -376 del 15000;
#X obj 307 -369 loadbang;
#X msg 307 -348 1;
#X msg 274 -257 0.3;
#X obj 320 -186 translateXYZ 3 -3.5 0;
#X msg 392 -135 text Shot;
#X obj 376 -101 loadbang;
#X msg 375 -76 15;
#X obj 371 84 rectangle 2 0.4;
#X obj 0 -71 rectangle 2 0.4;
#X obj 0 -156 translateXYZ 0 0 0;
#X obj 371 39 translateXYZ 3 -3.5 0;
#X obj 0 -189 translateXYZ 3 -3.5 0;
#X msg 438 16 draw line \, width 2;
#X obj 206 -12 t f f f f;
#X obj 230 140 s toarduino;
#X msg 230 117 digital 3 \$1;
#X obj 326 -268 s tgl-bullet;
#X msg 326 -292 1;
#X obj 175 -278 k_event 0.27 0.3;
#X obj 175 -229 k_range 0.27 0.3 1 0;
#X obj 115 34 expr ($f1/2)+0.5;
#X obj 224 15 s tgl-touch;
#X connect 0 0 42 0;
#X connect 1 0 41 0;
#X connect 2 0 19 0;
#X connect 3 0 1 0;
#X connect 4 0 40 0;
#X connect 5 0 7 0;
#X connect 6 0 5 0;
#X connect 7 0 20 0;
#X connect 8 0 9 0;
#X connect 9 0 38 1;
#X connect 10 0 39 1;
#X connect 11 0 43 0;
#X connect 12 0 33 0;
#X connect 14 0 34 0;
#X connect 16 0 17 0;
#X connect 17 0 15 0;
#X connect 18 0 29 0;
#X connect 19 0 48 0;
#X connect 20 0 8 0;
#X connect 20 1 10 0;
#X connect 20 2 11 0;
#X connect 20 3 50 0;
#X connect 20 4 28 0;
#X connect 21 0 22 0;
#X connect 22 0 23 0;
#X connect 23 0 19 1;
#X connect 24 0 23 0;
#X connect 25 0 27 0;
#X connect 26 0 6 0;
#X connect 27 0 26 0;
#X connect 29 0 24 0;
#X connect 29 0 47 0;
#X connect 30 0 31 0;
#X connect 30 0 32 0;
#X connect 31 0 23 0;
#X connect 32 0 49 0;
#X connect 33 0 13 0;
#X connect 34 0 13 0;
#X connect 35 0 36 0;
#X connect 36 0 13 1;
#X connect 39 0 38 0;
#X connect 40 0 37 0;
#X connect 41 0 39 0;
#X connect 42 0 37 0;
#X connect 43 0 45 0;
#X connect 43 1 51 0;
#X connect 43 2 12 0;
#X connect 43 3 21 0;
#X connect 45 0 44 0;
#X connect 47 0 46 0;
#X connect 48 0 49 0;
#X connect 48 1 32 0;
#X connect 49 0 6 0;
#X connect 50 0 16 0;
#X restore 93 324 pd [subpatch]power;
#N canvas 771 179 606 477 [subpatch]count-down 0;
#X obj 116 253 t b;
#X obj 155 179 hsl 128 15 0 9 0 0 empty empty empty -2 -8 0 10 -262144
-1 -1 0 1;
#X obj 152 202 int;
#N canvas 0 22 537 480 count 0;
#X msg 104 303 digital 4 \$1;
#X msg 141 330 digital 5 \$1;
#X msg 205 303 digital 6 \$1;
#X msg 237 328 digital 7 \$1;
#X obj 123 368 s toarduino;
#X msg 95 159 0 0 0 0;
#X obj 102 246 unpack f f f f;
#X msg 108 182 1 0 0 0;
#X msg 122 210 0 1 0 0;
#X obj 95 128 sel 0 1 2 3 4 5 6 7 8 9;
#X msg 151 156 1 1 0 0;
#X msg 206 194 0 0 0 1;
#X msg 166 181 0 0 1 0;
#X msg 197 169 1 0 1 0;
#X msg 242 165 0 1 1 0;
#X msg 284 192 1 1 1 0;
#X msg 314 157 1 0 0 1;
#X obj 91 38 inlet;
#X floatatom 95 101 5 0 0 0 - - -;
#X connect 0 0 4 0;
#X connect 1 0 4 0;
#X connect 2 0 4 0;
#X connect 3 0 4 0;
#X connect 5 0 6 0;
#X connect 6 0 0 0;
#X connect 6 1 1 0;
#X connect 6 2 2 0;
#X connect 6 3 3 0;
#X connect 7 0 6 0;
#X connect 8 0 6 0;
#X connect 9 0 5 0;
#X connect 9 1 7 0;
#X connect 9 2 8 0;
#X connect 9 3 10 0;
#X connect 9 4 12 0;
#X connect 9 5 13 0;
#X connect 9 6 14 0;
#X connect 9 7 15 0;
#X connect 9 8 11 0;
#X connect 9 9 16 0;
#X connect 10 0 6 0;
#X connect 11 0 6 0;
#X connect 12 0 6 0;
#X connect 13 0 6 0;
#X connect 14 0 6 0;
#X connect 15 0 6 0;
#X connect 16 0 6 0;
#X connect 17 0 18 0;
#X connect 18 0 9 0;
#X restore 152 225 pd count down;
#X text 176 201 倒數計時;
#X obj 349 139 gemhead 6;
#X obj 349 244 text2d;
#X msg 357 190 text \$1;
#X obj 133 50 r shot;
#X obj 152 147 line;
#X obj 423 138 gemhead 7;
#X obj 431 168 loadbang;
#X msg 431 191 draw line \, width 3;
#X obj 417 317 circle 0.8;
#X obj 133 73 t b b b;
#X msg 349 103 1;
#X msg 152 124 10 \, 0 10000;
#X msg 382 102 0;
#X obj -16 278 noise~;
#X obj -16 367 dac~;
#X obj -16 328 *~ 0;
#X obj 40 180 osc~ 1000;
#X obj 40 264 dac~;
#X obj 40 225 *~ 0;
#X obj 89 205 change;
#X obj 116 300 line;
#X msg 116 276 1 \, 0 300;
#X obj 89 230 sel 0;
#X obj 27 352 line;
#X obj -16 303 lop~ 600;
#X msg 27 328 1.3 \, 0 1000;
#X obj 133 100 del 9000;
#X obj 382 166 loadbang;
#X obj 382 57 loadbang;
#X msg 382 216 50;
#X obj 415 243 translateXYZ 0 -0.15 0;
#X obj 102 358 s to-bullet;
#X connect 0 0 26 0;
#X connect 1 0 2 0;
#X connect 2 0 3 0;
#X connect 2 0 7 0;
#X connect 2 0 24 0;
#X connect 5 0 6 0;
#X connect 7 0 6 0;
#X connect 8 0 14 0;
#X connect 9 0 1 0;
#X connect 10 0 35 0;
#X connect 11 0 12 0;
#X connect 12 0 13 0;
#X connect 14 0 31 0;
#X connect 14 1 16 0;
#X connect 14 2 15 0;
#X connect 15 0 5 0;
#X connect 15 0 10 0;
#X connect 16 0 9 0;
#X connect 17 0 5 0;
#X connect 17 0 10 0;
#X connect 18 0 29 0;
#X connect 20 0 19 0;
#X connect 20 0 19 1;
#X connect 21 0 23 0;
#X connect 23 0 22 0;
#X connect 23 0 22 1;
#X connect 24 0 27 0;
#X connect 25 0 23 1;
#X connect 26 0 25 0;
#X connect 27 0 30 0;
#X connect 27 0 36 0;
#X connect 27 1 0 0;
#X connect 28 0 20 1;
#X connect 29 0 20 0;
#X connect 30 0 28 0;
#X connect 31 0 17 0;
#X connect 32 0 34 0;
#X connect 33 0 17 0;
#X connect 34 0 6 1;
#X connect 35 0 13 0;
#X restore 93 346 pd [subpatch]count-down;
#N canvas 661 104 687 605 [subpatch]bullet 0;
#X obj 102 122 translateXYZ;
#X obj 102 150 colorRGB 1 1 0;
#X obj 102 -4 gemhead 2;
#X obj 102 180 circle 0.17;
#X obj 317 89 v x;
#X obj 348 140 v y;
#X obj 427 244 v ax;
#X obj 318 6 bng 15 250 50 0 empty empty empty 17 7 0 10 -262144 -1
-1;
#X msg 348 118 -3;
#X msg 317 65 0;
#X obj 201 104 t b b;
#X obj 240 183 v y;
#X obj 267 183 v ay;
#X obj 240 212 +;
#X obj 267 310 v y;
#X obj 122 67 v x;
#X obj 150 70 v y;
#X obj 240 151 t b b b;
#X floatatom 240 238 5 0 0 0 - - -;
#X floatatom 283 238 5 0 0 0 - - -;
#X obj 283 260 v ay;
#X obj 240 283 t f f;
#X obj 201 76 spigot;
#X obj 234 54 tgl 15 0 empty empty empty 17 7 0 10 -262144 -1 -1 0
1;
#X obj 102 30 t a b b b;
#X msg 271 79 1;
#X obj 210 336 expr if($f1<-3 \, 0 \, 1);
#X obj 86 326 +;
#X obj 86 265 t b b b;
#X floatatom 86 352 5 0 0 0 - - -;
#X obj 86 297 v x;
#X obj 157 360 v ax;
#X obj 86 377 v x;
#X obj 219 538 v ax;
#X obj 363 90 v ay;
#X floatatom 219 512 5 0 0 0 - - -;
#X msg 363 66 0.5;
#X obj 488 85 r knob;
#X floatatom 488 108 5 0 0 0 - - -;
#X floatatom 427 220 5 0 0 0 - - -;
#X obj 427 150 loadbang;
#X floatatom 488 157 5 0 0 0 - - -;
#X obj 112 295 v x-v;
#X obj 112 323 *;
#X msg 427 174 0;
#X obj 488 130 expr abs($f1-0.5);
#X obj 507 404 v x-v;
#X obj 507 259 r knob;
#X obj 508 357 expr if($f1>0.5 \, -1 \, 1);
#X obj 267 208 - 0.02;
#X obj 318 31 t b b b b b b;
#X obj 488 207 spigot;
#X msg 407 57 0;
#X obj 532 208 tgl 15 0 empty empty empty 17 7 0 10 -262144 -1 -1 1
1;
#X obj 318 -20 r to-bullet;
#X obj 532 183 r tgl-bullet;
#X floatatom 426 269 5 0 0 0 - - -;
#X obj 157 424 moses 0.001;
#X obj 508 302 spigot;
#X obj 555 263 tgl 15 0 empty empty empty 17 7 0 10 -262144 -1 -1 1
1;
#X obj 569 223 r tgl-bullet;
#X floatatom 508 331 5 0 0 0 - - -;
#X floatatom 508 381 5 0 0 0 - - -;
#X obj 219 448 - 0.01;
#X obj 157 388 spigot;
#X obj 102 484 unpack f f;
#X msg 102 452 0.005 0;
#X obj 193 366 tgl 15 0 empty empty empty 17 7 0 10 -262144 -1 -1 1
1;
#X obj 431 -9 loadbang;
#X obj 552 74 loadbang;
#X msg 552 96 1;
#X obj 21 204 s pos;
#X obj 21 176 pack f f;
#X connect 0 0 1 0;
#X connect 1 0 3 0;
#X connect 2 0 24 0;
#X connect 6 0 56 0;
#X connect 7 0 50 0;
#X connect 8 0 5 0;
#X connect 9 0 4 0;
#X connect 10 0 28 0;
#X connect 10 1 17 0;
#X connect 11 0 13 0;
#X connect 12 0 49 0;
#X connect 13 0 18 0;
#X connect 15 0 0 1;
#X connect 15 0 72 0;
#X connect 16 0 0 2;
#X connect 16 0 72 1;
#X connect 17 0 11 0;
#X connect 17 1 12 0;
#X connect 18 0 21 0;
#X connect 19 0 20 0;
#X connect 21 0 26 0;
#X connect 21 1 14 0;
#X connect 22 0 10 0;
#X connect 23 0 22 1;
#X connect 24 0 0 0;
#X connect 24 1 15 0;
#X connect 24 2 16 0;
#X connect 24 3 22 0;
#X connect 25 0 23 0;
#X connect 26 0 23 0;
#X connect 27 0 29 0;
#X connect 28 0 30 0;
#X connect 28 1 42 0;
#X connect 28 2 31 0;
#X connect 29 0 32 0;
#X connect 30 0 27 0;
#X connect 31 0 64 0;
#X connect 35 0 33 0;
#X connect 35 0 43 1;
#X connect 36 0 34 0;
#X connect 37 0 38 0;
#X connect 38 0 45 0;
#X connect 39 0 6 0;
#X connect 40 0 44 0;
#X connect 41 0 51 0;
#X connect 42 0 43 0;
#X connect 43 0 27 1;
#X connect 44 0 39 0;
#X connect 45 0 41 0;
#X connect 47 0 58 0;
#X connect 48 0 62 0;
#X connect 49 0 13 1;
#X connect 49 0 19 0;
#X connect 50 0 25 0;
#X connect 50 1 9 0;
#X connect 50 2 8 0;
#X connect 50 3 36 0;
#X connect 50 4 39 0;
#X connect 50 5 52 0;
#X connect 51 0 39 0;
#X connect 52 0 53 0;
#X connect 52 0 59 0;
#X connect 53 0 51 1;
#X connect 54 0 7 0;
#X connect 55 0 53 0;
#X connect 57 0 66 0;
#X connect 57 1 63 0;
#X connect 58 0 61 0;
#X connect 59 0 58 1;
#X connect 60 0 59 0;
#X connect 60 0 67 0;
#X connect 61 0 48 0;
#X connect 62 0 46 0;
#X connect 63 0 35 0;
#X connect 64 0 57 0;
#X connect 65 0 35 0;
#X connect 65 1 67 0;
#X connect 66 0 65 0;
#X connect 67 0 64 1;
#X connect 68 0 9 0;
#X connect 68 0 8 0;
#X connect 68 0 36 0;
#X connect 69 0 70 0;
#X connect 70 0 53 0;
#X connect 70 0 59 0;
#X connect 70 0 67 0;
#X connect 72 0 71 0;
#X restore 93 368 pd [subpatch]bullet;
#N canvas 680 286 562 406 [subpatch]floor 0;
#X obj 110 93 gemhead 1;
#X obj 110 176 rectangle 8 1;
#X obj 110 151 colorRGB 0.2 0 0.4;
#X obj 110 119 translateXYZ 0 -3.85 0;
#X obj 295 142 gemhead 1;
#X obj 295 225 curve 2;
#X obj 310 176 loadbang;
#X msg 351 219 -8 -2.8 0;
#X msg 313 198 8 -2.8 0;
#X connect 0 0 3 0;
#X connect 2 0 1 0;
#X connect 3 0 2 0;
#X connect 4 0 5 0;
#X connect 6 0 8 0;
#X connect 6 0 7 0;
#X connect 7 0 5 2;
#X connect 8 0 5 1;
#X restore 93 392 pd [subpatch]floor;
#X text 287 310 [注解]可變電阻控制方射方向;
#X text 318 326 熱敏電阻用於集氣能量滿了才能發射;
#X text 318 343 能量越大直流馬達轉速越快;
#X text 318 359 button用於發射炮彈;
#X text 317 376 發射前七段顯示器會跟電腦螢幕同時倒數
;
#X obj 83 103 del 2000;
#N canvas 608 294 360 209 [subpatch]target 0;
#X obj 16 -13 k_target 0;
#X obj 177 81 k_target 20;
#X obj 16 8 k_target 1;
#X obj 16 34 k_target 2;
#X obj 16 55 k_target 3;
#X obj 16 81 k_target 4;
#X obj 16 102 k_target 5;
#X obj 18 127 k_target 6;
#X obj 18 148 k_target 7;
#X obj 94 -13 k_target 8;
#X obj 93 7 k_target 9;
#X obj 94 34 k_target 10;
#X obj 94 55 k_target 11;
#X obj 94 81 k_target 12;
#X obj 94 102 k_target 13;
#X obj 96 127 k_target 14;
#X obj 96 148 k_target 15;
#X obj 175 -14 k_target 16;
#X obj 175 7 k_target 17;
#X obj 175 32 k_target 18;
#X obj 175 53 k_target 19;
#X obj 178 104 k_target 21;
#X obj 178 125 k_target 22;
#X obj 179 148 k_target 23;
#X obj 257 104 k_target 24;
#X obj 257 125 k_target 25;
#X obj 258 147 k_target 26;
#X restore 94 414 pd [subpatch]target;
#X floatatom 24 309 5 0 0 3 - - -;
#X text 345 121 [4]打開繪圖視窗;
#X obj 90 459 declare -path abs;
#N canvas 101 383 450 300 mouse 0;
#X obj 193 159 s pos;
#X obj 193 47 gemmouse 1 1;
#X obj 210 103 expr $f1*-8+4;
#X obj 193 129 pack f f;
#X obj 193 74 expr $f1*16-8;
#X connect 1 0 4 0;
#X connect 1 1 2 0;
#X connect 2 0 3 1;
#X connect 3 0 0 0;
#X connect 4 0 3 0;
#X restore 227 302 pd mouse;
#X obj 168 228 bng 15 250 50 0 empty empty empty 17 7 0 10 -262144
-1 -1;
#X msg 110 127 open 2;
#X connect 0 0 7 0;
#X connect 1 0 0 0;
#X connect 2 0 24 0;
#X connect 5 0 0 0;
#X connect 6 0 16 0;
#X connect 7 0 26 0;
#X connect 7 1 8 0;
#X connect 8 0 10 0;
#X connect 10 0 11 0;
#X connect 11 0 51 0;
#X connect 12 0 3 0;
#X connect 13 0 0 0;
#X connect 14 0 15 0;
#X connect 16 0 0 0;
#X connect 17 0 18 0;
#X connect 18 0 19 0;
#X connect 18 1 16 1;
#X connect 19 0 5 0;
#X connect 19 1 30 0;
#X connect 20 0 21 0;
#X connect 21 0 12 0;
#X connect 21 1 23 0;
#X connect 22 0 47 0;
#X connect 23 0 3 0;
#X connect 25 0 2 0;
#X connect 26 0 22 0;
#X connect 26 3 25 0;
#X connect 27 0 29 0;
#X connect 28 0 9 0;
#X connect 29 0 28 1;
#X connect 30 0 45 0;
#X connect 30 1 52 0;
#X connect 45 0 13 0;
#X connect 47 0 4 0;
#X connect 51 0 28 0;
#X connect 52 0 0 0;
